# xmcd
#
# Track frame offsets:
#	150
#	11297
#	22223
#	45789
#	56828
#	73085
#	81779
#	95043
#	106839
#	120800
#	134556
#	149825
#	164480
#	178204
#	195972
#	209411
#	220033
#	236607
#
# Disc length: 3323 seconds
#
# Revision: 0
# Processed by: cddbd v1.5.2PL0 Copyright (c) Steve Scherf et al.
# Submitted via: audiograbber 1.83.01
#
DISCID=020cf912
DTITLE=B.B. King - Everyday I Have The Blues CD2
DYEAR=2003
DGENRE=Blues
TTITLE0=Tickle Britches
TTITLE1=Don't Break Your Promises
TTITLE2=Five Long Years
TTITLE3=Catfish Blues (Live)
TTITLE4=The Other Night Blues
TTITLE5=A New Way Of Driving (Live)
TTITLE6=Army Of Lord
TTITLE7=I Never Heard A Man
TTITLE8=Save A Seat For Me
TTITLE9=Servant's Prayer
TTITLE10=Take My Hand Precious Lord
TTITLE11=B.B. Boogie
TTITLE12=You Upset Me Baby
TTITLE13=Rock Me Baby (Live)
TTITLE14=Blues At Midnight
TTITLE15=I Done Got Wise
TTITLE16=Lucille
TTITLE17=Please Accept My Love (Live)
EXTD=
EXTT0=
EXTT1=
EXTT2=
EXTT3=Live
EXTT4=
EXTT5=Live
EXTT6=
EXTT7=
EXTT8=
EXTT9=
EXTT10=
EXTT11=
EXTT12=
EXTT13=Live
EXTT14=
EXTT15=
EXTT16=
EXTT17=Live
PLAYORDER=
